<svg width="40" height="40" viewBox="0 0 40 40" fill="none" xmlns="http://www.w3.org/2000/svg">
<g clip-path="url(#clip0_44_26)">
<mask id="path-1-inside-1_44_26" fill="white">
<path d="M4.99998 20C4.99998 11.7158 11.7157 4.99999 20 4.99999C28.2843 4.99999 35 11.7158 35 20C35 28.2843 28.2843 35.0001 20 35.0001C11.7157 35.0001 4.99998 28.2843 4.99998 20Z"/>
<path d="M40 20C40 31.0457 31.0457 40 20 40C8.9543 40 0 31.0457 0 20C0 8.9543 8.9543 0 20 0C31.0457 0 40 8.9543 40 20Z"/>
</mask>
<path d="M20.5 15C20.5 14.7239 20.2761 14.5 20 14.5C19.7239 14.5 19.5 14.7239 19.5 15H20.5ZM19.6464 25.3536C19.8417 25.5488 20.1583 25.5488 20.3536 25.3536L23.5355 22.1716C23.7308 21.9763 23.7308 21.6597 23.5355 21.4645C23.3403 21.2692 23.0237 21.2692 22.8284 21.4645L20 24.2929L17.1716 21.4645C16.9763 21.2692 16.6597 21.2692 16.4645 21.4645C16.2692 21.6597 16.2692 21.9763 16.4645 22.1716L19.6464 25.3536ZM19.5 15V25H20.5V15H19.5ZM20 34.0001C12.268 34.0001 5.99998 27.732 5.99998 20H3.99998C3.99998 28.8366 11.1634 36.0001 20 36.0001V34.0001ZM34 20C34 27.732 27.732 34.0001 20 34.0001V36.0001C28.8365 36.0001 36 28.8366 36 20H34ZM20 5.99999C27.732 5.99999 34 12.268 34 20H36C36 11.1635 28.8365 3.99999 20 3.99999V5.99999ZM20 3.99999C11.1634 3.99999 3.99998 11.1635 3.99998 20H5.99998C5.99998 12.268 12.268 5.99999 20 5.99999V3.99999ZM39 20C39 30.4934 30.4934 39 20 39V41C31.598 41 41 31.598 41 20H39ZM20 39C9.50659 39 1 30.4934 1 20H-1C-1 31.598 8.40202 41 20 41V39ZM1 20C1 9.50659 9.50659 1 20 1V-1C8.40202 -1 -1 8.40202 -1 20H1ZM20 1C30.4934 1 39 9.50659 39 20H41C41 8.40202 31.598 -1 20 -1V1Z" fill="#181818" mask="url(#path-1-inside-1_44_26)"/>
</g>
<defs>
<clipPath id="clip0_44_26">
<rect width="40" height="40" fill="white"/>
</clipPath>
</defs>
</svg>
